<svg width="207" height="62" viewBox="0 0 207 62" fill="none" xmlns="http://www.w3.org/2000/svg">
<path d="M206.134 54.4376C206.525 54.0471 206.525 53.4139 206.134 53.0234L199.77 46.6594C199.38 46.2689 198.747 46.2689 198.356 46.6594C197.966 47.0499 197.966 47.6831 198.356 48.0736L204.013 53.7305L198.356 59.3873C197.966 59.7778 197.966 60.411 198.356 60.8015C198.747 61.1921 199.38 61.1921 199.77 60.8015L206.134 54.4376ZM0.210519 1.13741C0.617107 2.71073 1.33324 4.3867 2.3797 6.13383L4.09547 5.10615C3.13031 3.49475 2.4979 1.99522 2.1469 0.637L0.210519 1.13741ZM17.6105 20.6901C20.2884 22.4608 23.3073 24.2389 26.6922 26.0028L27.6165 24.2292C24.2875 22.4944 21.3289 20.7511 18.7136 19.0218L17.6105 20.6901ZM45.8781 34.2816C48.9926 35.4025 52.2924 36.5016 55.7854 37.5723L56.3716 35.6601C52.9077 34.5984 49.6383 33.5093 46.5553 32.3998L45.8781 34.2816ZM75.978 42.9051C79.2439 43.6453 82.6355 44.3612 86.1565 45.0497L86.5403 43.0868C83.0382 42.402 79.666 41.6902 76.42 40.9545L75.978 42.9051ZM106.715 48.5213C110.063 49.0046 113.507 49.4648 117.048 49.9L117.292 47.9149C113.764 47.4814 110.335 47.0231 107.001 46.5418L106.715 48.5213ZM137.761 52.0508C141.143 52.3415 144.601 52.611 148.137 52.858L148.276 50.8629C144.751 50.6166 141.304 50.348 137.933 50.0582L137.761 52.0508ZM168.938 54.0063C172.354 54.1474 175.833 54.2687 179.377 54.3696L179.434 52.3704C175.898 52.2698 172.427 52.1487 169.02 52.008L168.938 54.0063ZM200.151 54.7163C201.896 54.7257 203.654 54.7305 205.427 54.7305V52.7305C203.658 52.7305 201.903 52.7257 200.162 52.7163L200.151 54.7163Z" fill="white" fill-opacity="0.2"/>
</svg>
