<svg width="10" height="13" viewBox="0 0 12 15" fill="none" xmlns="http://www.w3.org/2000/svg">
<path fill-rule="evenodd" clip-rule="evenodd" d="M2.40822 4.31661V6.31661H1.74154C1.0293 6.31661 0.408203 6.8342 0.408203 7.53884V13.0944C0.408203 13.799 1.0293 14.3166 1.74154 14.3166H9.74154C10.4538 14.3166 11.0749 13.799 11.0749 13.0944V7.53884C11.0749 6.8342 10.4538 6.31661 9.74154 6.31661H9.07489V4.31661C9.07489 2.47566 7.5825 0.983276 5.74155 0.983276C3.9006 0.983276 2.40822 2.47566 2.40822 4.31661ZM7.74155 4.31661V6.31661H3.74155V4.31661C3.74155 3.21204 4.63698 2.31661 5.74155 2.31661C6.84612 2.31661 7.74155 3.21204 7.74155 4.31661ZM1.7417 12.9833V7.64996H9.7417V12.9833H1.7417ZM6.40819 10.3166C6.40819 10.6848 6.10971 10.9833 5.74152 10.9833C5.37333 10.9833 5.07486 10.6848 5.07486 10.3166C5.07486 9.94841 5.37333 9.64994 5.74152 9.64994C6.10971 9.64994 6.40819 9.94841 6.40819 10.3166Z" fill="#3B5166"/>
</svg>
