<svg width="41" height="41" viewBox="0 0 41 41" fill="none" xmlns="http://www.w3.org/2000/svg">
<path fill-rule="evenodd" clip-rule="evenodd" d="M25.9205 14.3896C26.7461 17.6299 24.1788 20.2445 21.3794 20.8105C13.9494 22.3182 10.7426 12.3235 18.6706 10.3106C22.3053 9.38946 25.2739 11.8618 25.9205 14.3896ZM22.9122 14.8902C22.5459 13.6584 21.1088 12.533 19.3162 12.9871C15.4604 13.9539 17.0692 19.0126 20.8247 18.1077C22.1483 17.7895 23.3799 16.4697 22.9122 14.8902ZM16.0119 21.7246C18.5019 22.9968 21.7671 22.9706 24.226 21.6657C24.3564 21.5971 24.4814 21.5173 24.6076 21.4368C24.9917 21.1917 25.3879 20.9389 25.9882 20.9668C27.0612 21.0203 29.2297 22.6681 25.4149 24.3879C24.0256 25.0129 23.5154 25.1067 22.8507 25.2289C22.513 25.291 22.1355 25.3604 21.5827 25.5104C21.7911 25.8774 23.4783 27.3169 24.6937 28.354C25.1277 28.7243 25.5016 29.0433 25.7265 29.2438C27.1485 30.5105 25.9384 31.9497 24.4802 31.8055C23.5543 31.7127 20.648 28.9566 20.1208 28.3899C19.5938 28.6259 18.8878 29.2922 18.1652 29.9742C17.2625 30.8262 16.334 31.7024 15.6966 31.7946C14.1811 32.0141 12.9174 30.4723 14.4578 29.1401L18.553 25.5356C18.3353 25.4321 17.8511 25.3408 17.3792 25.2518C17.0488 25.1895 16.7244 25.1283 16.5016 25.0649C10.532 23.3538 12.6594 20.8205 14.3693 20.9723C14.8185 21.0129 15.2345 21.2651 15.6106 21.4931C15.7499 21.5776 15.8838 21.6588 16.0119 21.7246Z" fill="#313131"/>
<rect x="0.870332" y="1.76682" width="38.3956" height="38.3956" rx="7.51219" stroke="#BDBDBD" stroke-width="1.66937"/>
</svg>
