<svg width="25" height="25" viewBox="0 0 25 25" fill="none" xmlns="http://www.w3.org/2000/svg">
<path d="M7.42078 11.0869C8.86078 13.9169 11.1808 16.2269 14.0108 17.6769L16.2108 15.4769C16.4808 15.2069 16.8808 15.1169 17.2308 15.2369C18.3508 15.6069 19.5608 15.8069 20.8008 15.8069C21.3508 15.8069 21.8008 16.2569 21.8008 16.8069V20.2969C21.8008 20.8469 21.3508 21.2969 20.8008 21.2969C11.4108 21.2969 3.80078 13.6869 3.80078 4.29688C3.80078 3.74687 4.25078 3.29688 4.80078 3.29688H8.30078C8.85078 3.29688 9.30078 3.74687 9.30078 4.29688C9.30078 5.54688 9.50078 6.74688 9.87078 7.86688C9.98078 8.21688 9.90078 8.60687 9.62078 8.88688L7.42078 11.0869Z" fill="black" fill-opacity="0.54"/>
</svg>
