<svg width="41" height="41" viewBox="0 0 41 41" fill="none" xmlns="http://www.w3.org/2000/svg">
<path fill-rule="evenodd" clip-rule="evenodd" d="M19.7425 27.1216C18.8448 28.0884 17.9569 29.0382 17.0766 29.9965C16.7689 30.3316 16.4227 30.5166 15.9812 30.4903C15.6805 30.4724 15.5118 30.3248 15.4196 30.008C14.746 27.6919 14.0613 25.3798 13.3907 23.0626C13.3254 22.837 13.227 22.7286 13.022 22.6593C11.4336 22.1217 9.84833 21.5724 8.26511 21.0165C8.03069 20.9341 7.79334 20.8283 7.58995 20.6789C7.23597 20.4191 7.18545 20.0058 7.50871 19.7066C7.80739 19.4301 8.1615 19.1986 8.52427 19.0398C10.5314 18.1612 12.5487 17.3111 14.5624 16.4509C19.4063 14.3817 24.2504 12.3126 29.0941 10.2423C30.0226 9.84543 30.7441 10.3959 30.6571 11.5041C30.5998 12.2347 30.4279 12.9557 30.2901 13.677C29.2167 19.2907 28.1391 24.9035 27.0629 30.5166C27.0609 30.5274 27.0602 30.5385 27.058 30.5493C26.7948 31.8334 25.9519 32.1845 24.9908 31.4017C23.3224 30.0428 21.6581 28.6777 19.9919 27.3156C19.9131 27.2512 19.8316 27.1908 19.7425 27.1216ZM16.0555 28.8893C16.0814 28.7576 16.0994 28.6968 16.1047 28.6347C16.2106 27.3723 16.3212 26.1104 16.415 24.8468C16.4358 24.5664 16.5114 24.3593 16.7074 24.1646C19.2358 21.6526 21.7564 19.1309 24.279 16.6118C24.9966 15.8952 25.7171 15.1821 26.4277 14.4572C26.5023 14.3811 26.5185 14.2348 26.5619 14.1211C26.4521 14.0867 26.3291 13.9995 26.2353 14.0284C26.0187 14.0952 25.8004 14.1906 25.6104 14.3228C21.8598 16.9339 18.1141 19.5534 14.3633 22.1643C14.1725 22.2971 14.118 22.4064 14.1946 22.6609C14.7885 24.6355 15.3651 26.6165 15.948 28.5952C15.9709 28.6727 16.0031 28.7469 16.0555 28.8893Z" fill="#313131"/>
<rect x="1.44992" y="1.76682" width="38.3956" height="38.3956" rx="7.51219" stroke="#BDBDBD" stroke-width="1.66937"/>
</svg>
