<svg width="41" height="41" viewBox="0 0 41 41" fill="none" xmlns="http://www.w3.org/2000/svg">
<path fill-rule="evenodd" clip-rule="evenodd" d="M20.2013 28.4136H21.798C21.798 28.4136 22.2799 28.3615 22.526 28.1002C22.7533 27.8594 22.7458 27.4083 22.7458 27.4083C22.7458 27.4083 22.7147 25.2965 23.7087 24.985C24.6886 24.6781 25.9476 27.0262 27.2812 27.9291C28.2903 28.6126 29.0571 28.4629 29.0571 28.4629L32.6239 28.4136C32.6239 28.4136 34.4894 28.3001 33.6047 26.8541C33.5321 26.736 33.0889 25.7838 30.9527 23.8282C28.7157 21.7814 29.0156 22.1125 31.71 18.5714C33.3501 16.4158 34.0065 15.0991 33.8009 14.5355C33.6057 13.998 32.3994 14.1403 32.3994 14.1403L28.3827 14.1645C28.3827 14.1645 28.0847 14.1245 27.864 14.2547C27.649 14.3821 27.5104 14.6797 27.5104 14.6797C27.5104 14.6797 26.8738 16.3479 26.0269 17.767C24.2387 20.7613 23.5229 20.9194 23.2305 20.7334C22.5506 20.3001 22.7203 18.9935 22.7203 18.0646C22.7203 15.1623 23.1673 13.9525 21.8517 13.6391C21.4151 13.5359 21.0935 13.4671 19.9768 13.4559C18.5442 13.441 17.3314 13.4596 16.6448 13.7916C16.1874 14.012 15.8347 14.5039 16.0497 14.5318C16.3147 14.5672 16.9164 14.6918 17.2352 15.1195C17.6464 15.6719 17.6322 16.9115 17.6322 16.9115C17.6322 16.9115 17.869 20.327 17.0796 20.752C16.5382 21.0422 15.796 20.4489 14.2012 17.7317C13.3845 16.3405 12.7677 14.8024 12.7677 14.8024C12.7677 14.8024 12.6489 14.5151 12.4367 14.3607C12.1792 14.1747 11.8199 14.1152 11.8199 14.1152L8.00311 14.1403C8.00311 14.1403 7.43064 14.1561 7.22033 14.4016C7.03265 14.6202 7.20524 15.0721 7.20524 15.0721C7.20524 15.0721 10.193 21.9646 13.5759 25.4379C16.6788 28.6228 20.2013 28.4136 20.2013 28.4136Z" fill="#313131"/>
<rect x="1.29025" y="1.76682" width="38.3956" height="38.3956" rx="7.51219" stroke="#BDBDBD" stroke-width="1.66937"/>
</svg>
